<?xml version="1.0" encoding="iso-8859-1"?>
<!-- Generator: Adobe Illustrator 19.0.0, SVG Export Plug-In . SVG Version: 6.00 Build 0)  -->
<svg version="1.1" id="Capa_1" xmlns="http://www.w3.org/2000/svg" xmlns:xlink="http://www.w3.org/1999/xlink" x="0px" y="0px"
	 viewBox="0 0 512 512" style="enable-background:new 0 0 512 512;" xml:space="preserve">
<g>
	<g>
		<path d="M488.499,376.736h-88.673V326.47c0-4.15-3.365-7.515-7.515-7.515c-4.15,0-7.515,3.365-7.515,7.515v129.921
			c0,15.99,6.784,30.425,17.624,40.579H55.654c-22.376,0-40.579-18.204-40.579-40.579V18.911l45.634,19.558
			c1.781,0.763,3.786,0.81,5.599,0.129l61.487-23.057l61.486,23.057c1.7,0.638,3.576,0.638,5.277,0l61.487-23.057l61.487,23.057
			c1.61,0.605,3.382,0.637,5.015,0.093l62.25-20.75v102.794c0,4.15,3.365,7.515,7.515,7.515s7.515-3.365,7.515-7.515V7.514
			c0-5.041-5.101-8.723-9.891-7.129l-69.617,23.206L258.683,0.479c-1.7-0.638-3.576-0.638-5.277,0L191.92,23.536L130.433,0.479
			c-1.7-0.638-3.576-0.638-5.277,0l-61.3,22.987L10.519,0.607C5.642-1.483,0.045,2.218,0.045,7.514v448.877
			C0.045,487.054,24.991,512,55.654,512h384.751c30.663,0,55.609-24.946,55.609-55.609V384.25
			C496.014,380.1,492.649,376.736,488.499,376.736z M480.984,456.391c0,22.376-18.204,40.579-40.579,40.579
			c-22.376,0-40.579-18.204-40.579-40.579v-64.626h81.159V456.391z"/>
	</g>
</g>
<g>
	<g>
		<path d="M191.419,181.575v-21.763c0-30.663-24.946-55.609-55.609-55.609H87.716c-12.983,0-23.546,10.563-23.546,23.546v144.282
			c0,12.983,10.563,23.546,23.546,23.546h80.157c30.663,0,55.609-24.946,55.609-55.609v-8.016
			C223.481,210.238,210.807,190.649,191.419,181.575z M208.452,239.968c0,22.376-18.204,40.579-40.579,40.579H87.716
			c-4.696,0-8.517-3.82-8.517-8.517V127.749c0-4.696,3.82-8.517,8.517-8.517h48.094c22.376,0,40.579,18.204,40.579,40.579v24.047
			c0,0.48-0.04,0.961-0.118,1.429c-0.604,3.61,1.48,7.129,4.936,8.335c16.296,5.687,27.245,21.091,27.245,38.33V239.968z"/>
	</g>
</g>
<g>
	<g>
		<path d="M135.81,136.266h-32.063c-4.15,0-7.515,3.365-7.515,7.515v40.078c0,4.15,3.364,7.515,7.515,7.515h48.094
			c4.15,0,7.515-3.365,7.515-7.515v-24.047C159.356,146.829,148.793,136.266,135.81,136.266z M144.327,176.344h-33.065v-25.049
			h24.548c4.696,0,8.517,3.82,8.517,8.517V176.344z"/>
	</g>
</g>
<g>
	<g>
		<path d="M167.873,208.407h-64.125c-4.15,0-7.515,3.365-7.515,7.515V256c0,4.15,3.365,7.515,7.515,7.515h64.125
			c12.983,0,23.546-10.563,23.546-23.546v-8.016C191.419,218.969,180.856,208.407,167.873,208.407z M176.389,239.968
			c0,4.696-3.82,8.517-8.517,8.517h-56.611v-25.049h56.611c4.696,0,8.517,3.82,8.517,8.517V239.968z"/>
	</g>
</g>
<g>
	<g>
		<path d="M175.888,408.798H71.685c-4.15,0-7.515,3.365-7.515,7.515s3.364,7.515,7.515,7.515h104.204
			c4.15,0,7.515-3.365,7.515-7.515S180.038,408.798,175.888,408.798z"/>
	</g>
</g>
<g>
	<g>
		<path d="M111.763,368.72H71.685c-4.15,0-7.515,3.365-7.515,7.515c0,4.15,3.364,7.515,7.515,7.515h40.078
			c4.15,0,7.515-3.365,7.515-7.515C119.278,372.084,115.913,368.72,111.763,368.72z"/>
	</g>
</g>
<g>
	<g>
		<path d="M191.92,368.72h-56.11c-4.15,0-7.515,3.365-7.515,7.515c0,4.15,3.365,7.515,7.515,7.515h56.11
			c4.15,0,7.515-3.365,7.515-7.515C199.434,372.084,196.07,368.72,191.92,368.72z"/>
	</g>
</g>
<g>
	<g>
		<path d="M151.841,328.642H71.685c-4.15,0-7.515,3.365-7.515,7.515s3.364,7.515,7.515,7.515h80.157c4.15,0,7.515-3.365,7.515-7.515
			S155.991,328.642,151.841,328.642z"/>
	</g>
</g>
<g>
	<g>
		<path d="M191.92,328.642h-16.031c-4.15,0-7.515,3.365-7.515,7.515s3.365,7.515,7.515,7.515h16.031c4.15,0,7.515-3.365,7.515-7.515
			S196.07,328.642,191.92,328.642z"/>
	</g>
</g>
<g>
	<g>
		<path d="M505.147,155.942l-45.343-45.344c-9.18-9.18-24.118-9.18-33.299,0L222.46,314.644c-1.137,1.137-1.897,2.66-2.126,4.251
			l-10.981,76.871L194.12,411c-2.935,2.935-2.935,7.693,0,10.627c2.895,2.895,7.732,2.895,10.627,0l15.233-15.233l76.871-10.981
			c1.591-0.227,3.114-0.989,4.251-2.126l204.044-204.044C514.224,180.166,514.224,165.019,505.147,155.942z M225.295,390.452
			l7.793-54.554l46.76,46.76L225.295,390.452z M295.79,377.346l-23.381-23.381l103.758-103.757c2.935-2.935,2.935-7.693,0-10.627
			c-2.934-2.935-7.692-2.935-10.627,0L261.781,343.338l-23.38-23.38l159.41-159.41l23.381,23.381l-31.94,31.94
			c-2.935,2.935-2.935,7.693,0,10.627c2.935,2.935,7.693,2.935,10.627,0l31.94-31.94l23.381,23.381L295.79,377.346z
			 M465.827,207.309l-57.388-57.388l6.376-6.376l57.388,57.388L465.827,207.309z M494.521,178.615l-11.69,11.69l-57.388-57.388
			l11.69-11.69c3.32-3.32,8.724-3.32,12.045,0l45.343,45.344C497.803,169.852,497.803,175.332,494.521,178.615z"/>
	</g>
</g>
<g>
</g>
<g>
</g>
<g>
</g>
<g>
</g>
<g>
</g>
<g>
</g>
<g>
</g>
<g>
</g>
<g>
</g>
<g>
</g>
<g>
</g>
<g>
</g>
<g>
</g>
<g>
</g>
<g>
</g>
</svg>
