<?xml version="1.0" encoding="iso-8859-1"?>
<!-- Generator: Adobe Illustrator 17.1.0, SVG Export Plug-In . SVG Version: 6.00 Build 0)  -->
<!DOCTYPE svg PUBLIC "-//W3C//DTD SVG 1.1//EN" "http://www.w3.org/Graphics/SVG/1.1/DTD/svg11.dtd">
<svg version="1.1" id="Capa_1" xmlns="http://www.w3.org/2000/svg" xmlns:xlink="http://www.w3.org/1999/xlink" x="0px" y="0px"
	 viewBox="0 0 189.208 189.208" style="enable-background:new 0 0 189.208 189.208;" xml:space="preserve">
<path d="M173.949,176.604c-0.606,0-1.205-0.036-1.793-0.104c-0.228,0.068-0.469,0.104-0.718,0.104h-153.1
	C8.227,176.604,0,168.377,0,158.266V15.104c0-1.381,1.119-2.5,2.5-2.5h158.663c1.381,0,2.5,1.119,2.5,2.5v20.471
	c0.005,0,0.01,0,0.015,0h20.543c2.75,0,4.987,2.237,4.987,4.988v120.782C189.208,169.759,182.363,176.604,173.949,176.604z
	 M184.208,40.563l-20.531,0.012l0.012,120.77c0,5.657,4.602,10.259,10.259,10.259c5.657,0,10.259-4.602,10.259-10.259V40.563z
	 M5,17.604v140.662c0,7.354,5.983,13.338,13.338,13.338h144.299c-2.484-2.735-3.975-6.357-3.975-10.259V17.604H5z M117.828,152.2
	H99.267c-1.381,0-2.5-1.119-2.5-2.5s1.119-2.5,2.5-2.5h18.562c1.381,0,2.5,1.119,2.5,2.5S119.209,152.2,117.828,152.2z
	 M150.908,152.019h-21.635c-1.381,0-2.5-1.119-2.5-2.5v-25.206c0-1.381,1.119-2.5,2.5-2.5h21.635c1.381,0,2.5,1.119,2.5,2.5v25.206
	C153.408,150.9,152.289,152.019,150.908,152.019z M131.773,147.019h16.635v-20.206h-16.635V147.019z M87.527,152.019H57.156
	c-1.381,0-2.5-1.119-2.5-2.5s1.119-2.5,2.5-2.5h30.371c1.381,0,2.5,1.119,2.5,2.5S88.908,152.019,87.527,152.019z M44.941,152.019
	H16.164c-1.381,0-2.5-1.119-2.5-2.5v-50.93c0-1.381,1.119-2.5,2.5-2.5h28.777c1.381,0,2.5,1.119,2.5,2.5v50.93
	C47.441,150.9,46.322,152.019,44.941,152.019z M18.664,147.019h23.777v-45.93H18.664V147.019z M112.301,139.468H99.267
	c-1.381,0-2.5-1.119-2.5-2.5s1.119-2.5,2.5-2.5h13.034c1.381,0,2.5,1.119,2.5,2.5S113.682,139.468,112.301,139.468z M78.483,139.287
	H57.156c-1.381,0-2.5-1.119-2.5-2.5s1.119-2.5,2.5-2.5h21.327c1.381,0,2.5,1.119,2.5,2.5S79.864,139.287,78.483,139.287z
	 M117.828,126.735H99.267c-1.381,0-2.5-1.119-2.5-2.5s1.119-2.5,2.5-2.5h18.562c1.381,0,2.5,1.119,2.5,2.5
	S119.209,126.735,117.828,126.735z M87.527,126.554H57.156c-1.381,0-2.5-1.119-2.5-2.5s1.119-2.5,2.5-2.5h30.371
	c1.381,0,2.5,1.119,2.5,2.5S88.908,126.554,87.527,126.554z M142.308,114.003h-13.035c-1.381,0-2.5-1.119-2.5-2.5s1.119-2.5,2.5-2.5
	h13.035c1.381,0,2.5,1.119,2.5,2.5S143.689,114.003,142.308,114.003z M112.301,114.003H99.267c-1.381,0-2.5-1.119-2.5-2.5
	s1.119-2.5,2.5-2.5h13.034c1.381,0,2.5,1.119,2.5,2.5S113.682,114.003,112.301,114.003z M78.483,113.822H57.156
	c-1.381,0-2.5-1.119-2.5-2.5s1.119-2.5,2.5-2.5h21.327c1.381,0,2.5,1.119,2.5,2.5S79.864,113.822,78.483,113.822z M148.949,101.271
	h-19.675c-1.381,0-2.5-1.119-2.5-2.5s1.119-2.5,2.5-2.5h19.675c1.381,0,2.5,1.119,2.5,2.5S150.33,101.271,148.949,101.271z
	 M118.942,101.271H99.267c-1.381,0-2.5-1.119-2.5-2.5s1.119-2.5,2.5-2.5h19.675c1.381,0,2.5,1.119,2.5,2.5
	S120.323,101.271,118.942,101.271z M86.969,101.089H57.156c-1.381,0-2.5-1.119-2.5-2.5s1.119-2.5,2.5-2.5h29.813
	c1.381,0,2.5,1.119,2.5,2.5S88.35,101.089,86.969,101.089z M141.625,83.44h-41.613c-1.381,0-2.5-1.119-2.5-2.5s1.119-2.5,2.5-2.5
	h41.613c1.381,0,2.5,1.119,2.5,2.5S143.006,83.44,141.625,83.44z M89.039,83.44H16.164c-1.381,0-2.5-1.119-2.5-2.5V30.01
	c0-1.381,1.119-2.5,2.5-2.5h72.875c1.381,0,2.5,1.119,2.5,2.5v50.93C91.539,82.321,90.42,83.44,89.039,83.44z M18.664,78.44h67.875
	V32.51H18.664V78.44z M146.904,70.708h-46.893c-1.381,0-2.5-1.119-2.5-2.5s1.119-2.5,2.5-2.5h46.893c1.381,0,2.5,1.119,2.5,2.5
	S148.285,70.708,146.904,70.708z M141.625,57.975h-41.613c-1.381,0-2.5-1.119-2.5-2.5s1.119-2.5,2.5-2.5h41.613
	c1.381,0,2.5,1.119,2.5,2.5S143.006,57.975,141.625,57.975z M135.414,45.243h-35.402c-1.381,0-2.5-1.119-2.5-2.5s1.119-2.5,2.5-2.5
	h35.402c1.381,0,2.5,1.119,2.5,2.5S136.795,45.243,135.414,45.243z M146.904,32.51h-46.893c-1.381,0-2.5-1.119-2.5-2.5
	s1.119-2.5,2.5-2.5h46.893c1.381,0,2.5,1.119,2.5,2.5S148.285,32.51,146.904,32.51z"/>
<g>
</g>
<g>
</g>
<g>
</g>
<g>
</g>
<g>
</g>
<g>
</g>
<g>
</g>
<g>
</g>
<g>
</g>
<g>
</g>
<g>
</g>
<g>
</g>
<g>
</g>
<g>
</g>
<g>
</g>
</svg>
