<svg height="480pt" viewBox="0 -9 480 520" width="480pt" xmlns="http://www.w3.org/2000/svg"><path d="m442.679688 59.410156c3.125-3.125 3.125-8.1875 0-11.3125l-45.253907-45.253906c-3.125-3.125-8.191406-3.125-11.3125 0l-39.609375 39.597656 28.273438 28.265625 28.261718 28.269531zm0 0"/><path d="m391.769531 110.324219-22.632812-22.632813-149.824219 149.832032c-3.140625 3.03125-8.128906 2.988281-11.214844-.097657-3.085937-3.085937-3.128906-8.078125-.097656-11.214843l149.824219-149.824219-22.625-22.632813-251.65625 251.648438 56.578125 56.574218zm0 0"/><path d="m50.945312 394.578125 74.359376-24.792969-49.570313-49.566406zm0 0"/><path d="m472 461.523438h-464c-4.417969 0-8-3.582032-8-8 0-4.417969 3.582031-8 8-8h464c4.417969 0 8 3.582031 8 8 0 4.417968-3.582031 8-8 8zm0 0"/><path d="m472 413.523438h-240c-4.417969 0-8-3.582032-8-8 0-4.417969 3.582031-8 8-8h240c4.417969 0 8 3.582031 8 8 0 4.417968-3.582031 8-8 8zm0 0"/><path d="m472 357.523438h-208c-4.417969 0-8-3.582032-8-8 0-4.417969 3.582031-8 8-8h208c4.417969 0 8 3.582031 8 8 0 4.417968-3.582031 8-8 8zm0 0"/></svg>