<?xml version="1.0" encoding="iso-8859-1"?>
<!-- Generator: Adobe Illustrator 19.0.0, SVG Export Plug-In . SVG Version: 6.00 Build 0)  -->
<svg version="1.1" id="Capa_1" xmlns="http://www.w3.org/2000/svg" xmlns:xlink="http://www.w3.org/1999/xlink" x="0px" y="0px"
	 viewBox="0 0 368 368" style="enable-background:new 0 0 368 368;" xml:space="preserve">
<g>
	<g>
		<path d="M184,0C82.536,0,0,82.544,0,184s82.536,184,184,184s184-82.544,184-184S285.464,0,184,0z M104.424,216h32.296
			c3.824,22.664,23.536,40,47.28,40s43.456-17.336,47.28-40h32.32c-4.024,40.368-38.184,72-79.592,72S108.448,256.368,104.424,216z
			 M152,208v-96c0-17.648,14.352-32,32-32s32,14.352,32,32v96c0,17.648-14.352,32-32,32S152,225.648,152,208z M192,351.592v-48
			c49.2-4.088,88-45.352,88-95.592v-40c0-4.416-3.576-8-8-8s-8,3.584-8,8v32h-32v-88c0-26.472-21.528-48-48-48s-48,21.528-48,48v88
			h-31.992v-32c0-4.416-3.576-8-8-8s-8,3.584-8,8v39.96c0,0.016-0.008,0.024-0.008,0.04s0.008,0.032,0.008,0.048
			c0.024,50.216,38.816,91.464,87.992,95.544v48C87.096,347.376,16,273.936,16,184C16,91.36,91.368,16,184,16s168,75.36,168,168
			C352,273.936,280.904,347.376,192,351.592z"/>
	</g>
</g>
<g>
</g>
<g>
</g>
<g>
</g>
<g>
</g>
<g>
</g>
<g>
</g>
<g>
</g>
<g>
</g>
<g>
</g>
<g>
</g>
<g>
</g>
<g>
</g>
<g>
</g>
<g>
</g>
<g>
</g>
</svg>
