<?xml version="1.0" encoding="iso-8859-1"?>
<!-- Generator: Adobe Illustrator 19.0.0, SVG Export Plug-In . SVG Version: 6.00 Build 0)  -->
<svg version="1.1" id="Capa_1" xmlns="http://www.w3.org/2000/svg" xmlns:xlink="http://www.w3.org/1999/xlink" x="0px" y="0px"
	 viewBox="0 0 490 490" style="enable-background:new 0 0 490 490;" xml:space="preserve">
<g id="line_15_">
	<path d="M245,0c-16.369,0-29.875,12.281-32.095,28.068H0v30.625h28.711v302.422H0v30.625h147.965L112.087,490h30.625l14.914-40.839
		h174.746L347.287,490h30.625l-35.862-98.26H490v-30.625h-28.711V58.693H490V28.068H277.095C274.875,12.281,261.369,0,245,0z
		 M168.805,418.537l9.785-26.797h132.836l9.785,26.797H168.805z M430.664,361.115H59.336V58.693h371.328V361.115z"/>
	<circle cx="153.232" cy="137.797" r="28.144"/>
	<rect x="221.373" y="122.5" width="143.539" height="30.625"/>
	<circle cx="153.232" cy="209.873" r="28.144"/>
	<rect x="221.373" y="194.561" width="143.539" height="30.625"/>
	<circle cx="153.232" cy="281.934" r="28.144"/>
	<rect x="221.373" y="266.621" width="143.539" height="30.625"/>
</g>
<g>
</g>
<g>
</g>
<g>
</g>
<g>
</g>
<g>
</g>
<g>
</g>
<g>
</g>
<g>
</g>
<g>
</g>
<g>
</g>
<g>
</g>
<g>
</g>
<g>
</g>
<g>
</g>
<g>
</g>
</svg>
