<?xml version="1.0" encoding="UTF-8"?>
<svg xmlns="http://www.w3.org/2000/svg" xmlns:xlink="http://www.w3.org/1999/xlink" version="1.1" x="0px" y="0px" viewBox="-49 141 512 511" style="enable-background:new -49 141 512 600;" xml:space="preserve"><style type="text/css">
	.st0{display:none;}
	.st1{display:inline;}
	.st2{fill:none;stroke:#000000;stroke-width:0.1;stroke-miterlimit:10;}
</style><g class="st0"><g class="st1"><rect x="-272" y="166" class="st2" width="512" height="512" /><line class="st2" x1="-272" y1="662" x2="240" y2="662" /><line class="st2" x1="-272" y1="646" x2="240" y2="646" /><line class="st2" x1="-272" y1="630" x2="240" y2="630" /><line class="st2" x1="-272" y1="614" x2="240" y2="614" /><line class="st2" x1="-272" y1="598" x2="240" y2="598" /><line class="st2" x1="-272" y1="582" x2="240" y2="582" /><line class="st2" x1="-272" y1="566" x2="240" y2="566" /><line class="st2" x1="-272" y1="550" x2="240" y2="550" /><line class="st2" x1="-272" y1="534" x2="240" y2="534" /><line class="st2" x1="-272" y1="518" x2="240" y2="518" /><line class="st2" x1="-272" y1="502" x2="240" y2="502" /><line class="st2" x1="-272" y1="486" x2="240" y2="486" /><line class="st2" x1="-272" y1="470" x2="240" y2="470" /><line class="st2" x1="-272" y1="454" x2="240" y2="454" /><line class="st2" x1="-272" y1="438" x2="240" y2="438" /><line class="st2" x1="-272" y1="422" x2="240" y2="422" /><line class="st2" x1="-272" y1="406" x2="240" y2="406" /><line class="st2" x1="-272" y1="390" x2="240" y2="390" /><line class="st2" x1="-272" y1="374" x2="240" y2="374" /><line class="st2" x1="-272" y1="358" x2="240" y2="358" /><line class="st2" x1="-272" y1="342" x2="240" y2="342" /><line class="st2" x1="-272" y1="326" x2="240" y2="326" /><line class="st2" x1="-272" y1="310" x2="240" y2="310" /><line class="st2" x1="-272" y1="294" x2="240" y2="294" /><line class="st2" x1="-272" y1="278" x2="240" y2="278" /><line class="st2" x1="-272" y1="262" x2="240" y2="262" /><line class="st2" x1="-272" y1="246" x2="240" y2="246" /><line class="st2" x1="-272" y1="230" x2="240" y2="230" /><line class="st2" x1="-272" y1="214" x2="240" y2="214" /><line class="st2" x1="-272" y1="198" x2="240" y2="198" /><line class="st2" x1="-272" y1="182" x2="240" y2="182" /><line class="st2" x1="224" y1="166" x2="224" y2="678" /><line class="st2" x1="208" y1="166" x2="208" y2="678" /><line class="st2" x1="192" y1="166" x2="192" y2="678" /><line class="st2" x1="176" y1="166" x2="176" y2="678" /><line class="st2" x1="160" y1="166" x2="160" y2="678" /><line class="st2" x1="144" y1="166" x2="144" y2="678" /><line class="st2" x1="128" y1="166" x2="128" y2="678" /><line class="st2" x1="112" y1="166" x2="112" y2="678" /><line class="st2" x1="96" y1="166" x2="96" y2="678" /><line class="st2" x1="80" y1="166" x2="80" y2="678" /><line class="st2" x1="64" y1="166" x2="64" y2="678" /><line class="st2" x1="48" y1="166" x2="48" y2="678" /><line class="st2" x1="32" y1="166" x2="32" y2="678" /><line class="st2" x1="16" y1="166" x2="16" y2="678" /><line class="st2" x1="0" y1="166" x2="0" y2="678" /><line class="st2" x1="-16" y1="166" x2="-16" y2="678" /><line class="st2" x1="-32" y1="166" x2="-32" y2="678" /><line class="st2" x1="-48" y1="166" x2="-48" y2="678" /><line class="st2" x1="-64" y1="166" x2="-64" y2="678" /><line class="st2" x1="-80" y1="166" x2="-80" y2="678" /><line class="st2" x1="-96" y1="166" x2="-96" y2="678" /><line class="st2" x1="-112" y1="166" x2="-112" y2="678" /><line class="st2" x1="-128" y1="166" x2="-128" y2="678" /><line class="st2" x1="-144" y1="166" x2="-144" y2="678" /><line class="st2" x1="-160" y1="166" x2="-160" y2="678" /><line class="st2" x1="-176" y1="166" x2="-176" y2="678" /><line class="st2" x1="-192" y1="166" x2="-192" y2="678" /><line class="st2" x1="-208" y1="166" x2="-208" y2="678" /><line class="st2" x1="-224" y1="166" x2="-224" y2="678" /><line class="st2" x1="-240" y1="166" x2="-240" y2="678" /><line class="st2" x1="-256" y1="166" x2="-256" y2="678" /></g></g><g><polygon points="332,372.8 206.9,311.4 82,372.8 206.9,422.5  " /><path d="M271.3,438.4h-0.1c-20.1,9.3-42.1,14.2-64.2,14.2c-0.2,0-0.3,0-0.5,0c-21.9-0.1-43.8-4.9-63.7-14.2v-27.7h-9.4v33.7   l2.7,1.3c21.8,10.7,46.2,16.3,70.4,16.4c0.2,0,0.3,0,0.5,0c24.5,0,49-5.7,71-16.4l2.7-1.3v-33.7h-9.4L271.3,438.4L271.3,438.4z" /><polygon points="111.7,390.6 104.3,390.6 104.3,482.6 111.7,482.6 111.7,465.8 126.7,480.1 131.7,474.7 111.7,455.6  " /></g><path d="M207,647c-66.8,0-129.6-26-176.8-73.2S-43,463.8-43,397s26-129.6,73.2-176.8S140.2,147,207,147s129.6,26,176.8,73.2  S457,330.2,457,397s-26,129.6-73.2,176.8S273.8,647,207,647z M207,163C78,163-27,268-27,397S78,631,207,631s234-105,234-234  S336,163,207,163z" /><text x="-49" y="668" fill="#000000" font-size="5px" font-weight="bold" font-family="'Helvetica Neue', Helvetica, Arial-Unicode, Arial, Sans-serif">Created by SBTS</text><text x="-49" y="673" fill="#000000" font-size="5px" font-weight="bold" font-family="'Helvetica Neue', Helvetica, Arial-Unicode, Arial, Sans-serif">from the Noun Project</text></svg>