<svg id="Layer_5" enable-background="new 0 0 64 64" height="512" viewBox="0 0 64 64" width="512" xmlns="http://www.w3.org/2000/svg"><path d="m55.759 24.083c.851-2.833 2.298-4.508 3.717-6.14 1.812-2.084 3.524-4.052 3.524-7.943 0-2.757-2.243-5-5-5s-5 2.243-5 5 2.243 5 5 5v-2c-1.654 0-3-1.346-3-3s1.346-3 3-3 3 1.346 3 3c0 3.143-1.339 4.682-3.033 6.631-1.446 1.662-3.118 3.6-4.107 6.873-.968-.269-1.989-.516-3.052-.742-.654-5.375-2.904-7.981-4.774-10.131-1.695-1.949-3.034-3.488-3.034-6.631 0-1.654 1.346-3 3-3s3 1.346 3 3-1.346 3-3 3v2c2.757 0 5-2.243 5-5s-2.243-5-5-5-5 2.243-5 5c0 3.891 1.712 5.859 3.524 7.943 1.763 2.027 3.571 4.115 4.221 8.417-3.069-.547-6.398-.929-9.746-1.143v-11.453-.764-1h-34.999c-1.654 0-3 1.346-3 3s1.346 3 3 3h18.408c.657 1.1 1.553 1.997 2.592 2.669v4.549c-12.092.769-24 3.742-24 8.782 0 12.264 7.657 22.768 18.438 27h-1.438c-1.654 0-3 1.346-3 3s1.346 3 3 3h28c1.654 0 3-1.346 3-3s-1.346-3-3-3h-1.438c10.781-4.232 18.438-14.736 18.438-27 0-2.478-2.88-4.455-7.241-5.917zm-31.864-11.53-.277-.553h-19.618c-.552 0-1-.448-1-1s.448-1 1-1h32.995c-.124 3.33-2.872 6-6.231 6h-1.292c-2.377 0-4.514-1.321-5.577-3.447zm5.577 5.447h1.292c2.492 0 4.725-1.117 6.236-2.871v16.871c0 .552-.448 1-1 1s-1-.448-1-1v-9c0-1.654-1.346-3-3-3s-3 1.346-3 3v4c0 .552-.448 1-1 1s-1-.448-1-1v-9.39c.787.246 1.615.39 2.472.39zm31.041 17.085c-2.373 2.895-13.019 5.915-28.513 5.915-15.496 0-26.142-3.02-28.513-5.915-.098-.513-.18-1.032-.249-1.555 4.906 3.574 17.115 5.47 28.762 5.47s23.856-1.896 28.762-5.47c-.069.523-.151 1.042-.249 1.555zm-14.513 23.915c.552 0 1 .448 1 1s-.448 1-1 1h-28c-.552 0-1-.448-1-1s.448-1 1-1h12 4zm-12-2h-4c-12.024 0-22.233-7.902-25.718-18.784 5.056 2.897 15.573 4.784 27.718 4.784s22.662-1.887 27.718-4.785c-3.485 10.883-13.694 18.785-25.718 18.785zm-2-20c-17.968 0-29-4.077-29-7 0-2.62 8.391-5.893 22-6.772v3.772c0 1.654 1.346 3 3 3s3-1.346 3-3v-4c0-.552.448-1 1-1s1 .448 1 1v9c0 1.654 1.346 3 3 3s3-1.346 3-3v-8.77c3.733.241 7.072.659 9.952 1.198.028.501.048 1.018.048 1.572v2h2v-2c0-.401-.012-.783-.026-1.16.854.191 1.667.389 2.42.599-.246 1.322-.394 2.821-.394 4.561h2c0-1.518.115-2.819.31-3.968 3.657 1.241 5.69 2.682 5.69 3.968 0 2.923-11.032 7-29 7z"/><path d="m53.301 42.497c-.424.651-.884 1.286-1.366 1.888l1.559 1.252c.524-.652 1.023-1.342 1.483-2.048z"/><path d="m40.643 52.022.578 1.914c3.926-1.187 7.541-3.356 10.456-6.274l-1.414-1.414c-2.684 2.687-6.01 4.683-9.62 5.774z"/><path d="m15.596 50.423c.566.401 1.155.782 1.75 1.133l1.014-1.725c-.547-.321-1.087-.671-1.607-1.039z"/><path d="m12.411 47.749c.486.481 1.004.953 1.537 1.402l1.287-1.531c-.492-.414-.969-.849-1.418-1.293z"/><path d="m11.328 43.416-1.621 1.17c.406.563.839 1.114 1.287 1.638l1.52-1.301c-.412-.482-.811-.989-1.186-1.507z"/><path d="m17 31c0-1.654-1.346-3-3-3h-5v2h5c.552 0 1 .448 1 1 0 1.654 1.346 3 3 3h5v-2h-5c-.552 0-1-.448-1-1z"/><path d="m45 29c-2.243 0-4 1.317-4 3s1.757 3 4 3 4-1.317 4-3-1.757-3-4-3zm0 4c-1.221 0-2-.592-2-1s.779-1 2-1 2 .592 2 1-.779 1-2 1z"/></svg>