<svg id="Layer_1" data-name="Layer 1" xmlns="http://www.w3.org/2000/svg" viewBox="0 0 395.54 440.99"><defs><style>.cls-1{font-size:39.46px;font-family:CopperplateGothic-Bold, Copperplate Gothic Bold;font-weight:700;}.cls-2{letter-spacing:-0.01em;}.cls-3{letter-spacing:-0.01em;}</style></defs><path d="M359.54,220l2.14,2.55a192.4,192.4,0,0,1,22.43,32.17A117.21,117.21,0,0,1,396,285.34a75.94,75.94,0,0,1,2,19.64,57.66,57.66,0,0,1-3,16.76,49,49,0,0,1-16.95,23.12,74.8,74.8,0,0,1-25.17,12.3,120.35,120.35,0,0,1-24.49,4.13l-2.54.22c-.25,1-.49,1.9-.74,2.84-2.42,9-8.12,14.77-17.16,17A22.9,22.9,0,0,1,280,361.76l-.21-2c-.87-.08-.87.53-1,1-2.33,6.39-4.85,12.7-7.73,18.86a150.1,150.1,0,0,1-20.34,32.78,93.31,93.31,0,0,1-17.17,16.23,67.45,67.45,0,0,1-14.39,8,49,49,0,0,1-37.42.05,72.22,72.22,0,0,1-22.08-14.17,117.34,117.34,0,0,1-21-26.09,192,192,0,0,1-16.42-34.94l-1.2-3.29a2.62,2.62,0,0,0-2.4-.2,193.27,193.27,0,0,1-24.66,3.23,159.71,159.71,0,0,1-26.06-.26,109.4,109.4,0,0,1-24-4.94,72.61,72.61,0,0,1-20-10.1c-9.89-7.21-16.63-16.59-19.59-28.56A62.64,62.64,0,0,1,2.62,300,89.38,89.38,0,0,1,9.1,270.6c1.27-3.25,2.77-6.42,4.17-9.62.36-.82.75-1.62,1.11-2.39-.34-1.24-1.36-1.8-2.09-2.59a23,23,0,0,1,25.62-37c.74.3,1.45.68,2.2,1,.22.08.52-.05,1.08-.12-.74-.93-1.32-1.71-1.95-2.44a204.22,204.22,0,0,1-19.37-26.67A131,131,0,0,1,6.11,160.24,79.56,79.56,0,0,1,2.73,132.1c1-14.71,7-26.93,18.46-36.32A71.84,71.84,0,0,1,45.78,83a108,108,0,0,1,22.33-4.32,159.52,159.52,0,0,1,34.12.57c5.35.67,10.67,1.57,16,2.36.77.11,1.56.15,2.53.25.48-1.26,1-2.45,1.39-3.65A196.57,196.57,0,0,1,137,45.85a124.11,124.11,0,0,1,19.9-26.2A80.94,80.94,0,0,1,173.27,7,57.47,57.47,0,0,1,191.1.2a48.51,48.51,0,0,1,26,2.08,69.77,69.77,0,0,1,22.24,13.35,110.57,110.57,0,0,1,18.87,21.64L260.05,40c1.12.19,2-.39,2.91-.67a23,23,0,0,1,20.81,40.22c-.7.55-1.39,1.11-2.08,1.68-.06,0,0,.19-.08.45l8.24-1.32a175.1,175.1,0,0,1,38.26-2,104.65,104.65,0,0,1,33.3,7A67,67,0,0,1,380.86,97c9.95,8.71,15.36,19.72,16.82,32.81,1.26,11.36-.58,22.31-4,33.08a132.69,132.69,0,0,1-13.76,29.22,201.69,201.69,0,0,1-18,24.68c-.64.77-1.29,1.53-1.92,2.31A6.48,6.48,0,0,0,359.54,220ZM200.62,121.06a8.22,8.22,0,0,0-1,.25c-.74.32-1.46.66-2.18,1a617.84,617.84,0,0,0-73.2,41.6c-2.66,1.76-5.27,3.62-8,5.35a3.64,3.64,0,0,0-1.79,3.2c-.12,2.6-.4,5.19-.54,7.78-.67,12.08-1.2,24.17-1.25,36.27q-.11,24.75,1.73,49.44c.27,3.64,0,3.12,2.86,5.05a614.92,614.92,0,0,0,80.42,46.43c.9.43,1.82.8,2.75,1.2a619.14,619.14,0,0,0,85.51-49.38,618.49,618.49,0,0,0,0-98.9A619.71,619.71,0,0,0,200.62,121.06Zm82.87-28.28c1.92,8,3.87,15.82,5.67,23.68s3.17,15.67,4.25,23.58,2.09,16,3.17,24.41c19.54,14,38.28,29.33,55.21,47.06.63-.64,1.15-1.09,1.58-1.61A189.72,189.72,0,0,0,370.85,186a123.14,123.14,0,0,0,12.08-25.39c3.1-9.37,4.86-18.94,3.94-28.88-1-11-5.53-20.11-14.07-27.18A58.24,58.24,0,0,0,355.92,95c-10.21-3.85-20.85-5.44-31.68-5.89a150.52,150.52,0,0,0-18.27.41c-6.89.55-13.7,1.51-20.5,2.66A16.14,16.14,0,0,0,283.49,92.78ZM268.85,355.14c-23.83-5.84-46.42-14.31-68.48-24.36-4.53,2-9,4-13.51,5.86S178,340.29,173.52,342s-9.18,3.41-13.82,5-9.12,3-13.71,4.32-9.38,2.62-14.22,4a13.88,13.88,0,0,0,.41,1.57c1.27,3.36,2.48,6.75,3.85,10.07A156.15,156.15,0,0,0,154,399.68a91.75,91.75,0,0,0,17.47,18.44A56.34,56.34,0,0,0,187.31,427a37.69,37.69,0,0,0,19.77,1.67,46.17,46.17,0,0,0,14.24-5.33A68.93,68.93,0,0,0,236,412.1a107.49,107.49,0,0,0,15.1-19A179.18,179.18,0,0,0,268.4,357,16.72,16.72,0,0,0,268.85,355.14ZM117.36,92.77c-1-.27-1.88-.57-2.74-.7-4.75-.7-9.49-1.43-14.25-2a140.53,140.53,0,0,0-36.48.13A86,86,0,0,0,42,96.07a55.27,55.27,0,0,0-15.25,9.4A37.1,37.1,0,0,0,15,124.29a55.82,55.82,0,0,0-.54,23.79,96.53,96.53,0,0,0,8.38,25.24c6.49,13.52,15.07,25.65,24.75,37,.31.36.7.66,1,1,6-5.67,11.68-11.38,17.7-16.78S78.59,184,84.91,178.89s12.83-9.83,19.31-14.76c1.21-12,2.74-24,4.88-35.94A347,347,0,0,1,117.36,92.77ZM251.29,47.18a4.21,4.21,0,0,0-.24-.8c-5.89-9.25-12.76-17.65-21.37-24.52a58.31,58.31,0,0,0-13.55-8.2,41.13,41.13,0,0,0-13-3.3,39.92,39.92,0,0,0-20.06,3.93A63.06,63.06,0,0,0,167.68,24.6a99.94,99.94,0,0,0-16.52,19.32c-8.23,12.28-14.3,25.61-19.22,39.51a4.15,4.15,0,0,0,0,1.09c23.65,5.74,46.31,14.29,68.32,24.3.55-.23.93-.37,1.29-.53,20.88-9.43,42.24-17.52,64.5-23.11a8.44,8.44,0,0,0,1.42-.71C248.81,81.64,240.8,61.91,251.29,47.18ZM351.71,228c-.78.87-1.34,1.57-2,2.2-4.29,4.19-8.51,8.45-12.9,12.52a396.28,396.28,0,0,1-37.7,30.57c-1,.7-1.89,1.43-2.75,2.09a405.64,405.64,0,0,1-12.44,69.71,8.35,8.35,0,0,0,1.72-1.49,23,23,0,0,1,37.52,4.72c.37.69.76,1.37,1.14,2.06a33.31,33.31,0,0,0,7-.38A91.67,91.67,0,0,0,355,345a57.6,57.6,0,0,0,18.65-10.6,37.3,37.3,0,0,0,12.16-19.86c1.95-8.12,1.66-16.24.11-24.37a99.27,99.27,0,0,0-9-25.65,175.66,175.66,0,0,0-24-35.39C352.64,228.84,352.33,228.6,351.71,228Zm-327.1,35c-.44.77-.86,1.43-1.21,2.14a109.58,109.58,0,0,0-6,14.69,72.54,72.54,0,0,0-3.85,25.35C14.1,318.31,19.31,329,30,336.77A59.46,59.46,0,0,0,43.05,344c10.5,4.25,21.52,6,32.76,6.51A172.24,172.24,0,0,0,111.94,348c1.73-.28,3.58-.29,5.38-1.28a353.34,353.34,0,0,1-8.22-35.27c-2.16-12-3.67-24.09-4.9-36-.34-.32-.47-.47-.63-.59l-2.9-2.13a393.93,393.93,0,0,1-41.36-34.14c-2.68-2.56-5.26-5.2-7.91-7.79-.29-.28-.57-.84-1.31-.34,3.35,8.47,2.95,16.66-2.79,24S33.73,264.23,24.61,263.05Zm273-83.84c.28,5.23.62,10.1.78,15,.7,21.87.6,43.74-.73,65.59a.42.42,0,0,0,.12.27c.06.07.16.09.42.22.48-.32,1.07-.66,1.6-1.07,3.87-3,7.77-6,11.59-9a326.58,326.58,0,0,0,30.82-28,6.79,6.79,0,0,0,2-2.47C337.42,211.1,305.6,183.35,297.62,179.21ZM56.25,219.92c.79.85,1.45,1.59,2.14,2.3,6,6.26,12.36,12.21,18.9,17.95q11.37,10,23.52,19c.58.44,1.09,1.23,2.21.8-.18-2.85-.4-5.73-.53-8.62-.54-11.87-.86-23.75-.7-35.63q.13-10,.46-20.07c.16-4.89.46-9.77.68-14.66,0-.54.29-1.19-.37-1.58C94.64,183.66,63,211.27,56.25,219.92ZM186.84,115c-.94-.47-1.72-.9-2.54-1.24-3.31-1.38-6.63-2.77-10-4.09a333.94,333.94,0,0,0-44.4-14.34,13.13,13.13,0,0,0-1.8-.17,349.86,349.86,0,0,0-11.92,60.2c.3,0,.43.12.5.08,22.41-14.23,45.14-27.91,69-39.62A10.69,10.69,0,0,0,186.84,115Zm27,.23c3.55,1.82,7,3.58,10.45,5.37s6.72,3.53,10.05,5.33,6.83,3.75,10.22,5.67,6.59,3.76,9.86,5.69,6.7,4,10,6,6.43,4,9.65,6,6.4,4.33,9.94,6.3a9.4,9.4,0,0,0-.06-4c-.9-6.22-1.78-12.45-2.8-18.65a314.18,314.18,0,0,0-8-35.33c-.24-.84-.58-1.65-.86-2.43C262.93,96.14,220.46,110.67,213.86,115.23ZM128.47,344.39c9.33-1,50.9-15.18,58.34-20-2.49-1.28-4.86-2.49-7.23-3.72s-4.8-2.46-7.18-3.72-4.76-2.53-7.13-3.82-4.72-2.6-7.07-3.92-4.69-2.65-7-4-4.83-2.81-7.23-4.23-4.63-2.77-6.93-4.17-4.59-2.83-6.87-4.26-4.53-2.93-6.83-4.34-4.3-3.16-6.86-4.19C116.06,293.27,125,337.89,128.47,344.39Zm155.68-60.12c-.32-.06-.45-.14-.51-.1-7.27,4.57-14.48,9.23-21.81,13.71q-22.87,14-46.92,25.9a3.32,3.32,0,0,0-.5.33.67.67,0,0,0-.2.21,1.89,1.89,0,0,0-.11.25c7.24,4.7,50,19.27,58.15,19.8C276,336.35,284.32,294.18,284.15,284.27Z" transform="translate(-2.57 0.7)"/><text class="cls-1" transform="translate(113.8 238.64) scale(0.87 1)">PH<tspan class="cls-2" x="64.04" y="0">O</tspan><tspan class="cls-3" x="97.55" y="0">T</tspan><tspan x="123.89" y="0">ON</tspan></text></svg>