<svg id="Layer_1" data-name="Layer 1" xmlns="http://www.w3.org/2000/svg" viewBox="0 0 84.02 96.25"><defs><style>.cls-1{fill-rule:evenodd;}.cls-2{font-size:13px;font-family:CopperplateGothic-Bold, Copperplate Gothic Bold;font-weight:700;}</style></defs><path class="cls-1" d="M20,53A15,15,0,0,1,35,38H65a15,15,0,1,1,0,30H35A15,15,0,0,1,20,53Zm15,6a6,6,0,1,1,6-6A6,6,0,0,1,35,59Zm30,0a6,6,0,1,1,6-6A6,6,0,0,1,65,59Z" transform="translate(-8 -2)"/><path class="cls-1" d="M65,55h0a2,2,0,1,0-2-2,2,2,0,0,0,2,2ZM35,55h0a2,2,0,1,0-2-2,2,2,0,0,0,2,2Z" transform="translate(-8 -2)"/><path class="cls-1" d="M81.14,23.34A30,30,0,0,1,90,43V63s0,20-40,20S10,63,10,63V43a29.93,29.93,0,0,1,8.88-19.67L8.27,5a2,2,0,0,1,3.46-2L22,20.69C27.9,16.29,36.76,13,50,13s22.12,3.29,28,7.7L88.29,3a2,2,0,1,1,3.46,2ZM14,43V63s0,.08,0,.29a8.22,8.22,0,0,0,.38,1.57,13.54,13.54,0,0,0,3.41,5.31C23.25,75.59,33.48,79,50,79s26.75-3.41,32.17-8.83a13.54,13.54,0,0,0,3.41-5.31A8.22,8.22,0,0,0,86,63.29c0-.21,0-.32,0-.29V43c0-.11,0-.42-.06-.91a22.65,22.65,0,0,0-.47-2.91,26.33,26.33,0,0,0-3.8-9C76.19,22,66.2,17,50,17S23.81,22,18.33,30.22a26.33,26.33,0,0,0-3.8,9,22.65,22.65,0,0,0-.47,2.91C14,42.58,14,43,14,43Z" transform="translate(-8 -2)"/><text class="cls-2" transform="translate(6 93)">t e l l i n a</text><text x="-8" y="-2"/></svg>