<?xml version="1.0" standalone="no"?>
<!DOCTYPE svg PUBLIC "-//W3C//DTD SVG 20010904//EN"
 "http://www.w3.org/TR/2001/REC-SVG-20010904/DTD/svg10.dtd">
<svg version="1.0" xmlns="http://www.w3.org/2000/svg"
 width="538.000000pt" height="530.000000pt" viewBox="0 0 538.000000 530.000000"
 preserveAspectRatio="xMidYMid meet">
<metadata>
Created by potrace 1.15, written by Peter Selinger 2001-2017
</metadata>
<g transform="translate(0.000000,530.000000) scale(0.100000,-0.100000)"
fill="#000000" stroke="none">
<path d="M1016 4829 c-19 -15 -26 -29 -26 -56 0 -39 -5 -30 256 -479 90 -155
166 -288 170 -297 3 -10 -19 -46 -64 -100 -143 -175 -227 -353 -268 -564 -20
-106 -20 -993 0 -1069 81 -306 416 -548 896 -648 233 -49 370 -61 715 -60 349
0 530 17 747 68 450 107 738 312 849 606 l24 65 0 495 c0 480 -1 498 -23 586
-52 214 -145 396 -276 541 l-56 61 128 224 c71 122 168 290 216 373 101 171
112 210 73 249 -30 30 -72 34 -103 8 -11 -9 -48 -64 -81 -122 -102 -177 -355
-615 -357 -617 -1 -1 -31 16 -66 39 -299 190 -695 280 -1164 265 -217 -7 -322
-20 -481 -57 -192 -46 -374 -120 -503 -205 -30 -19 -59 -35 -65 -35 -7 0 -45
58 -85 128 -236 414 -335 580 -357 600 -32 28 -65 28 -99 1z m1927 -604 c240
-21 409 -63 583 -145 122 -57 202 -110 291 -193 162 -152 252 -305 315 -537
22 -83 23 -96 23 -560 l0 -475 -36 -76 c-89 -186 -290 -333 -574 -421 -239
-74 -480 -102 -860 -102 -313 1 -428 10 -654 55 -396 79 -659 242 -769 477
l-27 57 -3 450 c-3 554 4 615 103 817 114 230 270 386 500 498 196 96 371 137
700 163 103 9 254 6 408 -8z"/>
<path d="M1962 3369 c-113 -19 -271 -112 -347 -205 -184 -227 -187 -549 -5
-775 75 -94 173 -161 300 -205 52 -18 93 -19 780 -19 682 0 728 1 780 19 222
75 373 233 426 446 12 49 15 91 11 170 -7 145 -47 252 -131 356 -83 103 -235
194 -357 214 -79 12 -1380 12 -1457 -1z m221 -375 c151 -76 189 -267 77 -387
-113 -124 -321 -92 -396 59 -13 27 -19 61 -19 109 0 58 5 78 27 116 27 46 77
91 120 109 39 15 156 12 191 -6z m1211 6 c38 -14 105 -79 129 -124 29 -56 29
-156 0 -211 -94 -180 -340 -180 -436 0 -33 62 -31 165 5 226 27 46 77 91 120
109 31 12 150 12 182 0z"/>
<path d="M2042 2843 c-15 -6 -42 -56 -42 -77 0 -8 12 -28 26 -45 32 -38 71
-41 108 -6 67 62 -4 163 -92 128z"/>
<path d="M3251 2833 c-11 -10 -24 -32 -27 -50 -5 -27 -1 -37 24 -63 36 -35 69
-38 106 -9 55 44 21 139 -51 139 -17 0 -40 -8 -52 -17z"/>
<path d="M4330 1300 c0 -6 -30 -82 -66 -168 -63 -150 -88 -209 -203 -490 -28
-68 -51 -128 -51 -133 0 -6 29 -9 66 -7 l65 3 32 80 33 80 135 3 134 3 34 -86
33 -85 69 0 69 0 -16 38 c-9 20 -18 44 -21 52 -4 8 -47 112 -96 230 -121 291
-187 451 -194 473 -6 18 -23 24 -23 7z m56 -407 c21 -53 41 -101 42 -105 2 -4
-35 -8 -82 -8 -50 0 -86 4 -86 10 0 17 73 200 80 200 4 0 25 -44 46 -97z"/>
<path d="M3295 1287 c-3 -6 -4 -185 -3 -397 l3 -385 58 -3 57 -3 0 235 c0 129
4 237 9 240 5 3 49 -38 97 -92 49 -53 94 -102 99 -108 6 -6 68 -74 140 -152
71 -78 133 -142 137 -142 5 0 7 179 6 398 l-3 397 -57 3 -58 3 0 -235 c0 -131
-4 -237 -9 -240 -5 -4 -24 11 -43 32 -74 86 -420 462 -424 462 -3 0 -7 -6 -9
-13z"/>
<path d="M694 1266 c-3 -7 -4 -33 -2 -57 l3 -44 102 -3 103 -3 2 -327 3 -327
60 0 60 0 3 327 2 327 103 3 102 3 0 55 0 55 -268 3 c-222 2 -268 0 -273 -12z"/>
<path d="M1350 890 l0 -390 230 0 230 0 0 55 0 55 -167 2 -168 3 -3 117 -3
117 138 3 138 3 0 55 0 55 -137 3 -138 3 0 94 0 95 168 2 167 3 0 55 0 55
-227 3 -228 2 0 -390z"/>
<path d="M1957 1274 c-4 -4 -7 -180 -7 -391 l0 -383 220 0 220 0 0 55 0 54
-157 3 -158 3 -5 330 -5 330 -50 3 c-28 2 -54 0 -58 -4z"/>
<path d="M2485 1268 c-3 -7 -4 -182 -3 -388 l3 -375 220 0 220 0 0 50 0 50
-160 5 -160 5 -5 330 -5 330 -53 3 c-36 2 -54 -1 -57 -10z"/>
<path d="M3020 890 l0 -391 58 3 57 3 0 385 0 385 -57 3 -58 3 0 -391z"/>
</g>
</svg>
