<svg id="Layer_1" data-name="Layer 1" xmlns="http://www.w3.org/2000/svg" viewBox="0 0 99.39 91.13"><defs><style>.cls-1{fill-rule:evenodd;}</style></defs><path d="M13,87.59v5.83a.49.49,0,0,0,.1.34.75.75,0,0,0,.37.2v.2H10.52V94a.76.76,0,0,0,.37-.19.49.49,0,0,0,.1-.34V87.59H8.57a.55.55,0,0,0-.36.1A.76.76,0,0,0,8,88h-.2V85.67H8a.68.68,0,0,0,.19.36.52.52,0,0,0,.35.1h6.82a.52.52,0,0,0,.35-.1.76.76,0,0,0,.2-.36h.2V88h-.2a.77.77,0,0,0-.2-.35.5.5,0,0,0-.35-.1Z" transform="translate(-0.32 -3.49)"/><path d="M23.16,90.75v2h5.22a.58.58,0,0,0,.35-.1.75.75,0,0,0,.19-.36h.21v2.37h-.21a.68.68,0,0,0-.19-.36.52.52,0,0,0-.35-.1H20.73V94a.68.68,0,0,0,.36-.19.5.5,0,0,0,.11-.34V86.86a.45.45,0,0,0-.11-.33.76.76,0,0,0-.36-.2v-.2h7.42a.53.53,0,0,0,.36-.1.75.75,0,0,0,.19-.36h.2V88h-.2a.75.75,0,0,0-.19-.36.6.6,0,0,0-.36-.09h-5v1.76h3.1a.52.52,0,0,0,.35-.1.85.85,0,0,0,.2-.36H27v2.32h-.2a.76.76,0,0,0-.2-.36.52.52,0,0,0-.35-.1Z" transform="translate(-0.32 -3.49)"/><path d="M36.56,92.71h4.6a.58.58,0,0,0,.35-.1.85.85,0,0,0,.2-.36h.2v2.37h-.2a.76.76,0,0,0-.2-.36.52.52,0,0,0-.35-.1h-7V94a.76.76,0,0,0,.37-.19.49.49,0,0,0,.1-.34V86.86a.45.45,0,0,0-.1-.33.75.75,0,0,0-.37-.2v-.2H37v.2a.75.75,0,0,0-.37.19.49.49,0,0,0-.1.34Z" transform="translate(-0.32 -3.49)"/><path d="M48.94,92.71h4.6a.54.54,0,0,0,.35-.1.76.76,0,0,0,.2-.36h.2v2.37h-.2a.75.75,0,0,0-.19-.36.53.53,0,0,0-.36-.1h-7V94a.68.68,0,0,0,.36-.19.5.5,0,0,0,.11-.34V86.86a.45.45,0,0,0-.11-.33.76.76,0,0,0-.36-.2v-.2h2.9v.2a.75.75,0,0,0-.37.19.55.55,0,0,0-.1.34Z" transform="translate(-0.32 -3.49)"/><path d="M61.32,86.86v6.56a.5.5,0,0,0,.11.34.76.76,0,0,0,.36.2v.2h-2.9V94a.68.68,0,0,0,.36-.19.5.5,0,0,0,.11-.34V86.86a.5.5,0,0,0-.1-.33.8.8,0,0,0-.37-.2v-.2h2.9v.2a.75.75,0,0,0-.36.19A.5.5,0,0,0,61.32,86.86Z" transform="translate(-0.32 -3.49)"/><path d="M69.25,88.87v4.55a.52.52,0,0,0,.11.35.75.75,0,0,0,.36.19v.2H67V94a.68.68,0,0,0,.36-.19.49.49,0,0,0,.1-.34V86.86a.45.45,0,0,0-.1-.33.76.76,0,0,0-.36-.2v-.2h3.15v.2c-.21,0-.32.15-.32.28a.62.62,0,0,0,.23.4l4.41,4.28V86.86a.49.49,0,0,0-.1-.34.75.75,0,0,0-.37-.19v-.2h2.73v.2a.75.75,0,0,0-.37.19.49.49,0,0,0-.1.34v6.56a.49.49,0,0,0,.1.34.75.75,0,0,0,.37.2v.2H73.79V94c.21,0,.32-.13.32-.26a.32.32,0,0,0-.09-.21c-.06-.07-.19-.21-.4-.42Z" transform="translate(-0.32 -3.49)"/><path d="M88.15,92.15H84.37L84,93a1.14,1.14,0,0,0-.16.49c0,.23.16.38.47.44v.2h-3V94a.74.74,0,0,0,.42-.17,1.93,1.93,0,0,0,.32-.48l3-5.93a1.38,1.38,0,0,0,.16-.59c0-.2-.13-.35-.41-.46v-.2h3.19v.2c-.26.11-.4.27-.4.49a1.22,1.22,0,0,0,.19.58l3.11,5.76a2.59,2.59,0,0,0,.4.6.86.86,0,0,0,.45.2v.2H88.31V94c.32,0,.48-.2.48-.44A1.16,1.16,0,0,0,88.6,93ZM87.56,91l-1.35-2.59L84.93,91Z" transform="translate(-0.32 -3.49)"/><text x="-0.32" y="-3.49"/><path d="M94.19,3.49H5.84A5.42,5.42,0,0,0,.32,8.81V78H99.71V8.81A5.42,5.42,0,0,0,94.19,3.49ZM5.84,7.75H94.19a1.08,1.08,0,0,1,1.1,1.06V18.4H4.74V8.81A1.08,1.08,0,0,1,5.84,7.75Zm-1.1,66V22.65H95.29V73.77Zm8.18-29.19L25.53,56.73,12.92,68.88l-3.12-3,9.48-9.14L9.8,47.59Z" transform="translate(-0.32 -3.49)"/><path class="cls-1" d="M57.92,56.1a6.79,6.79,0,0,1,6.8-6.79H78.3a6.8,6.8,0,1,1,0,13.59H64.72A6.79,6.79,0,0,1,57.92,56.1Zm6.79,2.72a2.72,2.72,0,1,1,2.72-2.72A2.72,2.72,0,0,1,64.71,58.82Zm13.6,0A2.72,2.72,0,1,1,81,56.1,2.72,2.72,0,0,1,78.31,58.82Z" transform="translate(-0.32 -3.49)"/><path class="cls-1" d="M78.31,57h0a.91.91,0,1,0-.91-.91.9.9,0,0,0,.91.91Zm-13.6,0h0a.91.91,0,1,0,0-1.81.91.91,0,0,0,0,1.81Z" transform="translate(-0.32 -3.49)"/><path class="cls-1" d="M85.62,42.66a13.59,13.59,0,0,1,4,8.91v9.06s0,9.07-18.12,9.07-18.12-9.07-18.12-9.07V51.57a13.57,13.57,0,0,1,4-8.91L52.6,34.35a.9.9,0,1,1,1.57-.9l4.64,8c2.68-2,6.7-3.48,12.7-3.48s10,1.49,12.71,3.49l4.64-8a.9.9,0,1,1,1.57.9ZM55.2,51.57v9.06s0,0,0,.14a4.34,4.34,0,0,0,.18.71,6.21,6.21,0,0,0,1.54,2.4c2.46,2.46,7.09,4,14.58,4s12.12-1.54,14.58-4a6.21,6.21,0,0,0,1.54-2.4,3.42,3.42,0,0,0,.17-.71,1,1,0,0,0,0-.14V51.57a2.9,2.9,0,0,0,0-.41,9.16,9.16,0,0,0-.21-1.32,12,12,0,0,0-1.72-4.06c-2.48-3.73-7-6-14.35-6s-11.87,2.26-14.35,6a12,12,0,0,0-1.72,4.06,11,11,0,0,0-.22,1.32C55.2,51.38,55.2,51.57,55.2,51.57Z" transform="translate(-0.32 -3.49)"/></svg>