<svg id="Layer_1" data-name="Layer 1" xmlns="http://www.w3.org/2000/svg" viewBox="0 0 100 100"><defs><style>.cls-1{font-size:14.68px;font-family:CopperplateGothic-Bold, Copperplate Gothic Bold;font-weight:700;}.cls-2{fill-rule:evenodd;}</style></defs><text class="cls-1" transform="translate(7.71 94.16) scale(1.02 1)">t e l l i n a</text><text/><path d="M94.19,3.49H5.84A5.42,5.42,0,0,0,.32,8.81V78H99.71V8.81A5.42,5.42,0,0,0,94.19,3.49ZM5.84,7.75H94.19a1.08,1.08,0,0,1,1.1,1.06V18.4H4.74V8.81A1.08,1.08,0,0,1,5.84,7.75Zm-1.1,66V22.65H95.29V73.77Zm8.18-29.19L25.53,56.73,12.92,68.88l-3.12-3,9.48-9.14L9.8,47.59Z"/><path class="cls-2" d="M57.92,56.1a6.79,6.79,0,0,1,6.8-6.79H78.3a6.8,6.8,0,1,1,0,13.59H64.72A6.79,6.79,0,0,1,57.92,56.1Zm6.79,2.72a2.72,2.72,0,1,1,2.72-2.72A2.72,2.72,0,0,1,64.71,58.82Zm13.6,0A2.72,2.72,0,1,1,81,56.1,2.72,2.72,0,0,1,78.31,58.82Z"/><path class="cls-2" d="M78.31,57h0a.91.91,0,1,0-.91-.91.9.9,0,0,0,.91.91Zm-13.6,0h0a.91.91,0,1,0,0-1.81.91.91,0,0,0,0,1.81Z"/><path class="cls-2" d="M85.62,42.66a13.59,13.59,0,0,1,4,8.91v9.06s0,9.07-18.12,9.07-18.12-9.07-18.12-9.07V51.57a13.57,13.57,0,0,1,4-8.91L52.6,34.35a.9.9,0,1,1,1.57-.9l4.64,8c2.68-2,6.7-3.48,12.7-3.48s10,1.49,12.71,3.49l4.64-8a.9.9,0,1,1,1.57.9ZM55.2,51.57v9.06s0,0,0,.14a4.34,4.34,0,0,0,.18.71,6.21,6.21,0,0,0,1.54,2.4c2.46,2.46,7.09,4,14.58,4s12.12-1.54,14.58-4a6.21,6.21,0,0,0,1.54-2.4,3.42,3.42,0,0,0,.17-.71,1,1,0,0,0,0-.14V51.57a2.9,2.9,0,0,0,0-.41,9.16,9.16,0,0,0-.21-1.32,12,12,0,0,0-1.72-4.06c-2.48-3.73-7-6-14.35-6s-11.87,2.26-14.35,6a12,12,0,0,0-1.72,4.06,11,11,0,0,0-.22,1.32C55.2,51.38,55.2,51.57,55.2,51.57Z"/></svg>