<?xml version="1.0" encoding="UTF-8"?>
<svg xmlns="http://www.w3.org/2000/svg" xmlns:cc="http://creativecommons.org/ns#" xmlns:dc="http://purl.org/dc/elements/1.1/" xmlns:inkscape="http://www.inkscape.org/namespaces/inkscape" xmlns:rdf="http://www.w3.org/1999/02/22-rdf-syntax-ns#" xmlns:sodipodi="http://sodipodi.sourceforge.net/DTD/sodipodi-0.dtd" xmlns:svg="http://www.w3.org/2000/svg" viewBox="0 0 48 48" version="1.1" x="0px" y="0px">
   <g transform="translate(0,-1004.3622)">
      <g transform="translate(-604.00016,-751)">
         <path style="color:#000000;text-indent:0;text-decoration-line:none;text-transform:none;direction:ltr;block-progression:tb;baseline-shift:baseline;enable-background:accumulate;" d="M 24 0 C 10.75146 0 -4e-005 10.748847 0 23.998047 C 2e-005 37.247147 10.7515 48 24 48 C 37.2485 48 47.99998 37.247147 48 23.998047 C 48.00004 10.748847 37.24854 0 24 0 z M 24 1.0078125 C 36.70433 1.0078125 46.992228 11.293247 46.992188 23.998047 C 46.992178 36.702847 36.70429 46.992188 24 46.992188 C 11.29571 46.992188 1.0078225 36.702847 1.0078125 23.998047 C 1.0077725 11.293247 11.29567 1.0078125 24 1.0078125 z M 19 10 L 19 14.03125 C 19.55824 14.07225 20.0956 14.1785 20.59375 14.375 C 20.70794 14.42 20.83141 14.45 20.9375 14.5 C 20.981 14.521 21.0222 14.5415 21.0625 14.5625 L 21.0625 14 L 25.96875 14 L 25.96875 15 L 21.75 15 C 22.46542 15.5113 23.03431 16.2067 23.4375 17 L 35 17 L 35 18 L 23.875 18 C 24.01085 18.482 24.0625 18.977 24.0625 19.5 L 24.0625 20 L 35 20 L 35 21 L 24.0625 21 L 24.0625 23 L 35 23 L 35 24 L 24.0625 24 L 24.0625 26 L 35 26 L 35 27 L 24.0625 27 L 24.0625 29.5625 L 25.03125 30.125 C 25.22686 30.2396 25.51402 30.4199 25.75 30.625 C 26.52719 31.3004 26.98681 32.31795 27 33.40625 C 27.00037 33.43725 27 33.477 27 33.5 L 27 34.96875 L 32.75 34.96875 L 37 34.96875 L 37 31.75 L 37 21.40625 L 37 15.46875 L 37 14.53125 L 37 14 L 33 14 L 33 10 L 31.5 10 L 19 10 z M 34 10 L 34 13 L 37 13 L 34 10 z M 20.96875 11 L 25.96875 11 L 25.96875 12 L 20.96875 12 L 20.96875 11 z M 28 11 L 32 11 L 32 15 L 28 15 L 28 11 z M 29 12 L 29 14 L 31 14 L 31 12 L 29 12 z M 18.5625 15 C 16.06117 15 14.0625 16.9983 14.0625 19.5 L 14.0625 28.90625 L 14.90625 28.40625 C 15.5861 28.00795 16 27.288 16 26.5 L 16 25.40625 C 15.43025 24.58695 15.0625 23.5821 15.0625 22.5625 L 15.0625 20.28125 L 15.0625 20.25 L 15.0625 19.15625 C 15.06151 19.13525 15.06151 19.11375 15.0625 19.09375 L 15.09375 18.8125 C 15.12405 18.5722 15.35154 18.3731 15.59375 18.375 C 16.14381 18.375 16.83704 18.42025 17.46875 18.40625 C 18.10045 18.39225 18.64469 18.2709 18.8125 18.125 C 19.01283 17.9507 19.27494 17.84365 19.53125 17.84375 C 19.78755 17.84375 20.04966 17.9507 20.25 18.125 C 20.61134 18.4396 21.10667 18.62895 21.6875 18.78125 C 21.89532 18.83425 22.05589 19.0355 22.0625 19.25 L 22.0625 20.25 C 22.0625 20.301 22.06239 20.29825 22.0625 20.28125 L 22.0625 22.5625 C 22.0625 23.6207 21.70095 24.6647 21.09375 25.5 C 21.06325 25.542 21.0319 25.584 21 25.625 L 21 26.9375 C 21 27.4391 21.25473 27.90305 21.6875 28.15625 L 23.0625 28.96875 L 23.0625 19.5 C 23.0625 17.8113 22.17288 16.3342 20.8125 15.5625 C 20.7169 15.5085 20.60135 15.45425 20.5 15.40625 C 20.4091 15.36325 20.33961 15.3475 20.25 15.3125 C 19.73774 15.1104 19.1508 15 18.5625 15 z M 19.53125 18.84375 C 19.51295 18.84375 19.49465 18.854 19.46875 18.875 C 18.93022 19.3432 18.2089 19.39025 17.5 19.40625 C 16.96537 19.41825 16.49812 19.392 16.0625 19.375 L 16.0625 20.25 L 16.0625 20.28125 L 16.0625 22.5625 C 16.0625 23.3833 16.36667 24.2812 16.84375 24.9375 C 17.32083 25.5938 17.93695 25.96875 18.5625 25.96875 C 19.18808 25.96875 19.80418 25.5938 20.28125 24.9375 C 20.75833 24.2812 21.0625 23.3834 21.0625 22.5625 L 21.0625 20.28125 C 21.06276 20.24025 21.0625 20.213 21.0625 20.25 L 21.0625 19.5625 C 20.55169 19.4041 20.03212 19.2566 19.59375 18.875 C 19.56785 18.852 19.54955 18.84375 19.53125 18.84375 z M 17 26.435547 L 17 26.4375 L 17 26.5 C 17 27.6414 16.39104 28.673 15.40625 29.25 L 15.0625 29.4375 C 15.0575 29.4585 15.0625 29.480047 15.0625 29.498047 C 15.0625 31.436947 16.6236 32.998047 18.5625 32.998047 C 20.49095 32.998047 22.04579 31.45555 22.0625 29.53125 L 21.1875 29.03125 C 20.44979 28.59915 20 27.790547 20 26.935547 L 20 26.560547 C 19.57254 26.823347 19.08033 26.96875 18.5625 26.96875 C 17.97619 26.96875 17.45893 26.763247 17 26.435547 z M 30.96875 29 L 35 29 L 35 30 L 30.96875 30 L 30.96875 29 z M 14.125 30 L 12.8125 30.78125 C 12.49067 30.96995 11.94389 31.331 11.78125 31.5 C 11.3729 31.9244 11.11105 32.51285 11.03125 33.15625 C 11.00905 33.33305 11 33.71565 11 33.96875 L 11 37 L 12.5 37 L 12.5 35.5 L 13.5 35.5 L 13.5 37 L 23.5 37 L 23.5 35.5 L 24.5 35.5 L 24.5 37 L 26 37 L 26 33.5 C 26 33.476 26.00022 33.42325 26 33.40625 C 25.99 32.58985 25.63693 31.847 25.09375 31.375 C 24.99835 31.292 24.68357 31.07625 24.5 30.96875 L 23 30.09375 C 22.70571 32.29135 20.83879 34 18.5625 34 C 16.2545 34 14.37807 32.242 14.125 30 z " transform="translate(604.00016,1755.3622)" display="inline" overflow="visible" visibility="visible" fill="#000000" fill-opacity="1" stroke="none" marker="none" />
      </g>
   </g>
</svg>